<svg id="svg" version="1.1" xmlns="http://www.w3.org/2000/svg" xmlns:xlink="http://www.w3.org/1999/xlink" width="400" height="400" viewBox="0, 0, 400,400"><g id="svgg"><path id="path0" d="M121.600 31.842 C 122.159 32.185,122.275 32.354,121.863 32.226 C 119.413 31.464,119.244 31.487,118.956 32.632 C 118.803 33.242,118.873 34.258,119.111 34.890 C 119.419 35.705,119.422 36.392,119.121 37.256 C 118.887 37.925,118.789 39.627,118.902 41.036 L 119.108 43.600 109.454 43.628 C 103.768 43.645,100.129 43.796,100.600 43.996 C 101.096 44.207,100.578 44.248,99.237 44.105 C 97.758 43.947,97.158 44.008,97.338 44.300 C 97.522 44.598,97.179 44.596,96.191 44.293 C 94.266 43.702,93.702 44.266,94.293 46.191 C 94.596 47.179,94.598 47.522,94.300 47.338 C 94.008 47.158,93.947 47.758,94.105 49.237 C 94.248 50.578,94.207 51.096,93.996 50.600 C 93.770 50.068,93.647 50.906,93.628 53.100 L 93.600 56.400 79.700 56.473 C 72.055 56.513,64.742 56.494,63.450 56.431 C 62.078 56.363,60.989 56.495,60.833 56.746 C 60.644 57.052,60.133 57.043,59.069 56.717 C 56.924 56.058,56.058 56.924,56.717 59.069 C 57.043 60.133,57.052 60.644,56.746 60.833 C 56.495 60.989,56.363 62.078,56.431 63.450 C 56.494 64.742,56.513 66.585,56.473 67.544 L 56.400 69.289 40.500 69.233 C 31.755 69.203,24.240 69.187,23.800 69.198 C 23.360 69.209,22.354 69.108,21.565 68.973 C 19.583 68.634,18.634 69.583,18.973 71.565 C 19.108 72.354,19.194 73.360,19.164 73.800 C 19.135 74.240,19.086 76.085,19.055 77.900 L 19.000 81.200 9.500 81.200 L 0.000 81.200 0.000 109.600 L 0.000 138.000 9.744 138.000 L 19.487 138.000 21.348 139.638 C 22.372 140.539,23.911 142.474,24.769 143.938 C 28.143 149.693,29.561 150.400,37.730 150.400 L 44.336 150.400 46.539 152.413 C 47.750 153.521,49.145 155.276,49.637 156.313 C 50.129 157.351,50.857 158.670,51.254 159.245 C 51.651 159.820,51.847 160.420,51.688 160.578 C 51.530 160.737,51.612 160.807,51.872 160.733 C 52.131 160.660,52.640 160.960,53.001 161.400 C 53.363 161.840,53.542 161.969,53.398 161.686 C 53.251 161.399,53.723 161.531,54.468 161.985 C 55.757 162.771,56.411 162.797,74.781 162.799 L 93.762 162.800 94.981 163.935 C 96.298 165.161,98.565 166.087,101.920 166.769 C 104.811 167.357,145.189 167.357,148.080 166.769 C 151.435 166.087,153.702 165.161,155.019 163.935 L 156.238 162.800 250.219 162.799 C 343.961 162.797,344.203 162.795,345.532 161.985 C 346.277 161.531,346.749 161.399,346.602 161.686 C 346.458 161.969,346.637 161.840,346.999 161.400 C 347.360 160.960,347.869 160.660,348.128 160.733 C 348.388 160.807,348.470 160.737,348.312 160.578 C 348.153 160.420,348.349 159.820,348.746 159.245 C 349.143 158.670,349.871 157.351,350.363 156.313 C 350.855 155.276,352.250 153.521,353.461 152.413 L 355.664 150.400 362.270 150.400 C 370.439 150.400,371.857 149.693,375.231 143.938 C 376.089 142.474,377.628 140.539,378.652 139.638 L 380.513 138.000 390.256 138.000 L 400.000 138.000 400.000 109.600 L 400.000 81.200 390.497 81.200 L 380.995 81.200 380.966 78.100 C 380.950 76.395,380.899 74.550,380.853 74.000 C 380.807 73.450,380.883 72.354,381.021 71.565 C 381.368 69.584,380.420 68.634,378.435 68.973 C 377.646 69.108,376.640 69.211,376.200 69.202 C 375.760 69.194,368.245 69.208,359.500 69.233 L 343.600 69.280 343.527 67.540 C 343.487 66.583,343.506 64.742,343.569 63.450 C 343.637 62.078,343.505 60.989,343.254 60.833 C 342.948 60.644,342.957 60.133,343.283 59.069 C 343.942 56.924,343.076 56.058,340.931 56.717 C 339.867 57.043,339.356 57.052,339.167 56.746 C 339.011 56.495,337.922 56.363,336.550 56.431 C 335.258 56.494,327.945 56.513,320.300 56.473 L 306.400 56.400 306.372 53.100 C 306.353 50.906,306.230 50.068,306.004 50.600 C 305.793 51.096,305.752 50.578,305.895 49.237 C 306.053 47.758,305.992 47.158,305.700 47.338 C 305.402 47.522,305.404 47.179,305.707 46.191 C 306.298 44.266,305.734 43.702,303.809 44.293 C 302.821 44.596,302.478 44.598,302.662 44.300 C 302.842 44.008,302.242 43.947,300.763 44.105 C 299.422 44.248,298.904 44.207,299.400 43.996 C 299.871 43.796,296.232 43.645,290.546 43.628 L 280.892 43.600 281.098 41.036 C 281.211 39.627,281.113 37.925,280.879 37.256 C 280.578 36.392,280.581 35.705,280.889 34.890 C 281.127 34.258,281.197 33.242,281.044 32.632 C 280.756 31.487,280.587 31.464,278.137 32.226 C 277.725 32.354,277.841 32.185,278.400 31.842 C 279.368 31.248,279.323 31.229,277.000 31.242 C 275.312 31.252,274.837 31.357,275.400 31.596 C 275.878 31.799,275.314 31.828,274.000 31.668 C 271.018 31.305,127.417 31.325,125.400 31.689 C 124.330 31.882,123.999 31.851,124.400 31.595 C 124.822 31.325,124.349 31.215,122.800 31.220 C 120.654 31.228,120.624 31.243,121.600 31.842 M196.400 48.031 C 198.816 49.124,200.699 50.980,201.845 53.400 L 202.792 55.400 202.787 75.000 C 202.781 98.493,202.671 98.970,196.600 101.845 L 194.600 102.792 175.000 102.792 L 155.400 102.792 153.400 101.845 C 147.329 98.970,147.219 98.493,147.213 75.000 L 147.208 55.400 148.155 53.400 C 149.301 50.980,151.184 49.124,153.600 48.031 C 156.396 46.767,193.604 46.767,196.400 48.031 M58.605 57.106 C 58.856 57.288,58.675 57.728,58.132 58.258 C 57.394 58.980,57.216 59.019,57.020 58.508 C 56.623 57.472,57.743 56.481,58.605 57.106 M21.534 69.550 C 21.961 69.821,21.936 69.939,21.413 70.140 C 20.999 70.299,20.857 70.231,21.027 69.957 C 21.191 69.690,21.008 69.578,20.552 69.666 C 20.143 69.745,19.745 70.143,19.666 70.552 C 19.578 71.008,19.690 71.191,19.957 71.027 C 20.237 70.854,20.296 71.005,20.124 71.453 C 19.886 72.074,19.817 72.056,19.472 71.283 C 18.832 69.850,20.197 68.703,21.534 69.550 M380.408 69.810 C 380.763 70.237,380.798 70.677,380.528 71.283 C 380.183 72.056,380.114 72.074,379.876 71.453 C 379.704 71.005,379.763 70.854,380.043 71.027 C 380.310 71.191,380.422 71.008,380.334 70.552 C 380.255 70.143,379.857 69.745,379.448 69.666 C 378.992 69.578,378.809 69.690,378.973 69.957 C 379.143 70.231,379.001 70.299,378.587 70.140 C 378.064 69.939,378.039 69.821,378.466 69.550 C 379.257 69.049,379.841 69.127,380.408 69.810 M283.148 72.744 C 286.112 73.870,287.838 75.401,289.188 78.102 L 290.400 80.528 290.400 100.000 L 290.400 119.472 289.188 121.898 C 286.234 127.810,285.394 128.000,262.296 128.000 L 243.400 127.999 240.996 126.862 C 234.664 123.867,234.400 122.790,234.400 100.000 C 234.400 77.210,234.664 76.133,240.996 73.138 L 243.400 72.001 262.296 72.000 C 279.746 72.000,281.341 72.057,283.148 72.744 M145.682 110.222 C 148.189 111.076,150.725 113.360,151.851 115.778 L 152.792 117.800 152.787 137.400 C 152.781 160.893,152.671 161.370,146.600 164.245 L 144.600 165.192 125.000 165.192 L 105.400 165.192 103.400 164.245 C 97.329 161.370,97.219 160.893,97.213 137.400 L 97.208 117.800 98.149 115.778 C 99.240 113.436,101.793 111.084,104.154 110.247 C 106.684 109.350,143.058 109.328,145.682 110.222 M218.049 260.652 C 217.461 261.942,217.317 261.842,220.170 262.123 L 222.540 262.357 221.370 261.643 C 220.727 261.251,219.953 260.630,219.651 260.265 C 218.900 259.355,218.608 259.426,218.049 260.652 M242.681 260.613 C 242.286 261.156,241.712 261.600,241.405 261.600 C 241.098 261.600,240.764 261.735,240.662 261.900 C 240.561 262.065,242.004 262.200,243.870 262.200 C 246.322 262.200,247.073 262.089,246.578 261.800 C 246.201 261.580,245.396 260.995,244.789 260.500 C 243.450 259.409,243.562 259.403,242.681 260.613 M142.589 285.531 C 141.923 286.160,141.113 286.774,140.789 286.896 C 140.465 287.019,141.709 287.126,143.554 287.135 C 146.792 287.150,146.875 287.128,145.954 286.488 C 145.429 286.123,144.730 285.502,144.400 285.107 C 143.830 284.425,143.739 284.446,142.589 285.531 M117.942 285.962 L 117.284 287.118 119.542 287.140 L 121.800 287.161 120.400 285.991 C 118.678 284.552,118.743 284.553,117.942 285.962 " stroke="none" fill="#ac2c44" fill-rule="evenodd"></path><path id="path1" d="M153.536 53.536 L 151.200 55.872 151.200 75.000 L 151.200 94.128 153.536 96.464 L 155.872 98.800 175.000 98.800 L 194.128 98.800 196.464 96.464 L 198.800 94.128 198.800 75.000 L 198.800 55.872 196.464 53.536 L 194.128 51.200 175.000 51.200 L 155.872 51.200 153.536 53.536 M194.925 55.122 L 196.000 56.244 196.000 75.000 L 196.000 93.756 194.925 94.878 L 193.850 96.000 175.047 96.000 L 156.244 96.000 155.122 94.925 L 154.000 93.850 154.000 75.047 L 154.000 56.244 155.075 55.122 L 156.150 54.000 175.000 54.000 L 193.850 54.000 194.925 55.122 M240.974 78.574 L 238.800 80.748 238.800 100.000 L 238.800 119.252 240.974 121.426 L 243.148 123.600 262.416 123.600 L 281.685 123.600 282.912 122.567 C 283.587 121.999,284.648 120.894,285.270 120.112 L 286.400 118.690 286.400 100.000 L 286.400 81.310 285.270 79.888 C 284.648 79.106,283.587 78.001,282.912 77.433 L 281.685 76.400 262.416 76.400 L 243.148 76.400 240.974 78.574 M282.525 80.322 L 283.600 81.444 283.600 100.000 L 283.600 118.556 282.525 119.678 L 281.450 120.800 262.451 120.800 C 243.494 120.800,243.449 120.798,242.526 119.930 L 241.600 119.061 241.600 100.056 C 241.600 81.094,241.602 81.049,242.470 80.126 L 243.339 79.200 262.395 79.200 L 281.450 79.200 282.525 80.322 M103.568 115.968 L 101.200 118.336 101.200 137.336 L 101.200 156.336 103.480 158.368 L 105.760 160.400 125.000 160.400 L 144.240 160.400 146.520 158.368 L 148.800 156.336 148.800 137.336 L 148.800 118.336 146.432 115.968 L 144.064 113.600 125.000 113.600 L 105.936 113.600 103.568 115.968 M144.831 117.569 L 146.000 118.738 146.000 137.542 L 146.000 156.346 144.838 157.173 C 143.021 158.467,106.979 158.467,105.162 157.173 L 104.000 156.346 104.000 137.542 L 104.000 118.738 105.169 117.569 L 106.338 116.400 125.000 116.400 L 143.662 116.400 144.831 117.569 M56.806 201.800 L 56.800 203.800 200.000 203.800 L 343.200 203.800 343.194 201.800 C 343.190 200.528,343.063 199.998,342.844 200.343 C 342.606 200.719,342.416 200.750,342.228 200.445 C 341.807 199.765,57.602 199.822,57.594 200.502 C 57.590 200.831,57.456 200.796,57.200 200.400 C 56.921 199.968,56.811 200.361,56.806 201.800 M315.747 220.597 C 310.597 221.717,308.928 223.505,307.987 228.906 C 307.309 232.798,307.534 232.708,298.000 232.879 C 286.201 233.090,284.377 234.111,283.013 241.271 C 282.270 245.168,282.787 244.965,272.881 245.251 C 261.549 245.579,256.089 247.267,258.320 249.753 C 258.738 250.219,259.204 250.946,259.354 251.368 C 259.603 252.069,259.757 252.011,261.114 250.712 C 264.318 247.642,267.367 246.811,275.446 246.805 C 282.703 246.799,282.947 246.678,285.058 242.042 C 287.945 235.704,290.497 234.401,300.022 234.400 L 306.643 234.400 307.899 233.100 C 308.590 232.385,309.548 230.771,310.028 229.513 C 312.569 222.856,314.179 222.255,330.200 221.981 C 337.240 221.861,343.045 221.726,343.100 221.681 C 345.212 219.970,322.726 219.079,315.747 220.597 M332.200 253.129 C 330.984 253.261,328.000 255.739,328.000 256.617 C 328.000 257.781,325.440 262.027,324.141 263.018 C 321.294 265.189,319.417 265.600,312.334 265.600 L 305.876 265.600 304.438 267.125 C 303.647 267.964,302.665 269.629,302.257 270.825 C 300.397 276.267,296.810 278.000,287.410 278.000 L 280.962 278.000 279.528 279.500 C 278.739 280.325,277.865 281.720,277.585 282.600 C 276.353 286.479,273.758 288.974,269.728 290.155 C 261.151 292.668,259.496 293.328,257.851 294.896 C 255.355 297.275,247.407 300.401,243.855 300.400 C 242.082 300.399,235.376 298.503,233.137 297.368 L 231.257 296.415 228.728 297.588 C 225.801 298.945,214.853 301.770,209.248 302.615 C 206.531 303.025,201.809 303.196,193.181 303.198 L 180.962 303.200 179.534 304.700 C 178.749 305.525,177.900 306.818,177.649 307.572 C 176.211 311.885,173.568 314.181,168.456 315.561 C 161.922 317.324,159.573 318.316,157.630 320.133 C 155.605 322.027,151.639 323.762,146.543 324.981 C 143.337 325.749,138.781 324.893,133.530 322.537 L 131.202 321.492 128.501 322.698 C 125.644 323.973,114.563 326.849,109.723 327.571 C 107.917 327.840,97.768 328.000,82.456 328.000 C 56.947 328.000,56.800 328.007,56.800 329.274 C 56.800 330.052,57.146 330.059,84.700 329.878 C 113.505 329.688,115.448 329.592,127.180 327.785 C 131.181 327.169,131.767 327.168,135.247 327.773 C 149.205 330.199,159.956 327.577,163.528 320.875 C 164.916 318.271,165.331 318.071,172.000 316.798 C 176.585 315.923,178.839 313.524,179.426 308.894 C 179.573 307.736,180.032 306.358,180.447 305.831 L 181.200 304.874 197.900 304.688 C 214.576 304.503,219.762 304.148,228.044 302.625 C 230.818 302.115,231.494 302.135,235.644 302.850 C 249.360 305.214,261.738 301.853,263.946 295.165 C 264.468 293.582,266.010 292.905,271.178 291.992 C 276.880 290.985,278.673 288.972,279.778 282.340 C 280.141 280.163,280.379 280.097,288.600 279.898 C 300.952 279.598,303.462 278.129,304.639 270.508 C 305.126 267.350,304.909 267.425,314.267 267.200 C 326.064 266.917,328.584 265.536,329.426 258.894 C 329.573 257.736,330.056 256.329,330.498 255.766 L 331.303 254.743 337.251 254.880 L 343.200 255.016 343.200 254.108 C 343.200 253.609,343.065 253.182,342.900 253.159 C 342.046 253.042,333.232 253.018,332.200 253.129 M208.436 256.865 C 207.908 257.060,205.867 257.571,203.901 258.001 C 198.153 259.255,196.567 260.780,195.580 266.000 C 194.771 270.276,195.750 269.999,181.438 270.008 C 165.783 270.018,161.014 270.644,158.824 272.975 L 157.932 273.924 158.841 275.503 L 159.750 277.083 160.700 275.954 C 161.222 275.334,162.849 274.235,164.315 273.513 L 166.980 272.200 180.390 272.081 L 193.800 271.963 195.459 270.339 C 196.371 269.446,197.220 268.239,197.346 267.657 C 198.240 263.517,201.496 260.787,207.444 259.188 C 209.305 258.688,210.910 258.146,211.010 257.983 C 211.396 257.359,209.420 256.501,208.436 256.865 M107.400 282.214 C 106.740 282.517,105.724 282.772,105.142 282.782 C 99.577 282.877,96.143 286.113,95.362 292.001 C 94.904 295.455,96.137 295.263,75.242 295.123 L 56.800 295.000 56.800 295.900 C 56.800 296.395,57.025 296.817,57.300 296.837 C 57.575 296.858,65.990 296.847,76.000 296.812 L 94.200 296.749 95.461 295.534 C 96.155 294.865,97.113 293.248,97.589 291.941 C 98.937 288.245,103.410 284.402,106.365 284.400 C 108.450 284.399,111.181 283.042,110.535 282.328 C 109.768 281.481,109.059 281.455,107.400 282.214 M101.600 365.579 C 99.510 366.181,97.215 366.976,96.500 367.347 C 95.785 367.717,95.200 367.892,95.200 367.734 C 95.200 367.576,94.936 367.796,94.613 368.224 C 94.120 368.875,94.023 371.505,94.013 384.500 L 94.000 400.000 102.200 400.000 L 110.400 400.000 110.400 397.033 C 110.400 388.831,114.477 385.610,124.863 385.604 L 131.527 385.600 133.377 383.802 C 134.394 382.813,135.585 381.169,136.022 380.149 C 138.067 375.379,141.391 373.141,146.659 372.989 C 148.700 372.930,150.000 373.049,150.000 373.295 C 150.000 373.523,150.260 373.482,150.600 373.200 C 151.072 372.808,151.200 372.807,151.200 373.194 C 151.200 373.801,153.244 373.369,153.690 372.668 C 153.868 372.389,153.997 372.603,154.012 373.200 C 154.036 374.177,154.049 374.172,154.586 373.000 L 155.135 371.800 155.226 373.600 C 155.307 375.215,155.357 375.100,155.716 372.481 C 156.084 369.794,155.600 367.067,154.882 367.785 C 154.781 367.886,154.138 367.678,153.454 367.324 C 152.769 366.970,150.407 366.173,148.204 365.552 L 144.200 364.423 124.800 364.454 L 105.400 364.485 101.600 365.579 M251.600 365.579 C 249.510 366.181,247.215 366.976,246.500 367.347 C 245.785 367.717,245.200 367.892,245.200 367.734 C 245.200 367.576,244.936 367.796,244.613 368.224 C 244.120 368.875,244.023 371.505,244.013 384.500 L 244.000 400.000 252.200 400.000 L 260.400 400.000 260.400 397.033 C 260.400 388.831,264.477 385.610,274.863 385.604 L 281.527 385.600 283.377 383.802 C 284.394 382.813,285.585 381.169,286.022 380.149 C 288.067 375.379,291.391 373.141,296.659 372.989 C 298.700 372.930,300.000 373.049,300.000 373.295 C 300.000 373.523,300.260 373.482,300.600 373.200 C 301.072 372.808,301.200 372.807,301.200 373.194 C 301.200 373.801,303.244 373.369,303.690 372.668 C 303.868 372.389,303.997 372.603,304.012 373.200 C 304.036 374.177,304.049 374.172,304.586 373.000 L 305.135 371.800 305.226 373.600 C 305.307 375.215,305.357 375.100,305.716 372.481 C 306.084 369.794,305.600 367.067,304.882 367.785 C 304.781 367.886,304.138 367.678,303.454 367.324 C 302.769 366.970,300.407 366.173,298.204 365.552 L 294.200 364.423 274.800 364.454 L 255.400 364.485 251.600 365.579 " stroke="none" fill="#cccccc" fill-rule="evenodd"></path><path id="path2" d="M1.500 156.293 C 2.435 156.377,3.965 156.377,4.900 156.293 C 5.835 156.209,5.070 156.140,3.200 156.140 C 1.330 156.140,0.565 156.209,1.500 156.293 M395.100 156.293 C 396.035 156.377,397.565 156.377,398.500 156.293 C 399.435 156.209,398.670 156.140,396.800 156.140 C 394.930 156.140,394.165 156.209,395.100 156.293 M6.528 166.997 C 6.579 167.848,6.831 168.233,7.400 168.333 C 8.130 168.460,8.142 168.425,7.534 167.936 C 7.167 167.641,6.775 167.040,6.662 166.600 C 6.542 166.134,6.486 166.299,6.528 166.997 M393.246 166.680 C 393.221 167.164,392.885 167.744,392.500 167.968 C 391.837 168.354,391.837 168.376,392.513 168.388 C 393.328 168.402,393.754 167.580,393.480 166.523 C 393.329 165.938,393.284 165.968,393.246 166.680 M9.300 168.687 C 9.905 168.778,10.895 168.778,11.500 168.687 C 12.105 168.595,11.610 168.520,10.400 168.520 C 9.190 168.520,8.695 168.595,9.300 168.687 M388.500 168.687 C 389.105 168.778,390.095 168.778,390.700 168.687 C 391.305 168.595,390.810 168.520,389.600 168.520 C 388.390 168.520,387.895 168.595,388.500 168.687 M43.737 171.800 C 43.739 173.560,43.809 174.230,43.893 173.289 C 43.978 172.349,43.977 170.909,43.891 170.089 C 43.805 169.270,43.736 170.040,43.737 171.800 M356.140 172.000 C 356.140 173.870,356.209 174.635,356.293 173.700 C 356.377 172.765,356.377 171.235,356.293 170.300 C 356.209 169.365,356.140 170.130,356.140 172.000 M92.366 176.537 C 88.866 179.621,88.615 181.301,91.257 183.943 L 93.314 186.000 112.319 186.000 L 131.324 186.000 132.651 184.988 C 133.380 184.432,134.451 183.355,135.031 182.595 L 136.084 181.214 135.050 179.449 C 134.481 178.479,133.458 177.215,132.777 176.642 L 131.539 175.600 112.469 175.613 L 93.400 175.625 92.366 176.537 M229.562 176.900 C 228.794 177.615,227.769 178.886,227.282 179.725 L 226.397 181.250 227.426 182.598 C 227.991 183.340,229.060 184.408,229.800 184.973 L 231.147 186.000 250.000 186.000 L 268.853 186.000 270.200 184.973 C 270.940 184.408,272.009 183.340,272.574 182.598 L 273.603 181.250 272.718 179.725 C 272.231 178.886,271.206 177.615,270.438 176.900 L 269.044 175.600 250.000 175.600 L 230.956 175.600 229.562 176.900 M44.000 179.631 C 44.000 180.645,44.883 181.203,46.380 181.136 L 47.800 181.072 46.505 180.911 C 45.768 180.819,44.950 180.378,44.605 179.886 C 44.175 179.272,44.000 179.198,44.000 179.631 M355.312 179.970 C 355.041 180.404,354.246 180.819,353.513 180.910 L 352.200 181.072 353.651 181.136 C 355.093 181.200,356.216 180.449,355.937 179.610 C 355.860 179.380,355.579 179.542,355.312 179.970 M325.809 228.710 L 318.618 228.819 317.346 230.053 C 316.604 230.772,315.960 231.886,315.803 232.725 C 314.631 238.970,311.175 240.930,301.000 241.122 L 293.800 241.257 292.508 242.500 C 291.732 243.245,290.976 244.554,290.616 245.771 C 288.763 252.045,285.713 253.600,275.264 253.600 L 268.557 253.600 267.309 254.900 C 266.599 255.639,265.943 256.842,265.788 257.689 C 265.301 260.348,263.237 263.192,260.800 264.563 L 258.600 265.800 238.000 265.865 C 226.670 265.901,214.931 265.946,211.914 265.965 L 206.428 266.000 205.058 267.203 C 204.167 267.985,203.591 268.922,203.411 269.881 C 201.987 277.474,198.660 278.800,181.043 278.800 L 168.557 278.800 167.322 280.100 C 166.601 280.859,165.825 282.319,165.458 283.611 C 164.634 286.509,162.615 288.837,159.918 289.997 L 157.802 290.907 132.123 290.954 L 106.444 291.000 105.050 292.352 C 104.118 293.255,103.502 294.341,103.195 295.622 C 101.394 303.130,99.644 303.631,75.401 303.588 L 56.600 303.554 56.493 312.477 L 56.385 321.400 78.093 321.302 C 111.042 321.154,110.919 321.168,113.107 317.284 C 116.427 311.387,127.668 308.823,139.429 311.280 C 143.359 312.101,144.104 312.150,146.029 311.711 C 149.592 310.898,158.656 309.620,163.998 309.177 C 169.954 308.683,170.773 308.176,171.859 304.304 C 172.743 301.154,174.349 299.051,176.896 297.709 L 179.000 296.600 193.000 296.400 L 207.000 296.200 209.387 295.141 C 211.206 294.334,212.161 293.576,213.404 291.948 C 215.628 289.037,217.935 287.366,220.483 286.820 C 229.282 284.932,232.310 284.865,239.862 286.387 C 243.613 287.143,244.119 287.161,246.462 286.623 C 250.182 285.769,259.564 284.492,264.473 284.173 C 269.428 283.850,270.684 283.042,271.752 279.493 C 273.701 273.016,276.512 271.490,287.024 271.200 L 294.269 271.000 295.283 269.820 C 295.840 269.171,296.605 267.611,296.982 266.353 C 298.708 260.589,301.731 259.064,311.800 258.876 C 320.265 258.718,320.673 258.532,321.859 254.304 C 323.604 248.084,326.285 246.629,336.200 246.522 L 343.400 246.444 343.507 237.493 L 343.615 228.543 338.307 228.571 C 335.388 228.587,329.764 228.649,325.809 228.710 " stroke="none" fill="#241c1c" fill-rule="evenodd"></path><path id="path3" d="M155.385 55.696 C 155.279 55.973,155.239 64.840,155.296 75.400 L 155.400 94.600 175.000 94.600 L 194.600 94.600 194.600 75.000 L 194.600 55.400 175.089 55.296 C 159.694 55.214,155.537 55.299,155.385 55.696 M243.280 80.480 C 242.589 81.171,242.589 118.829,243.280 119.520 C 244.224 120.464,281.475 120.182,281.986 119.226 C 282.555 118.164,282.555 81.836,281.986 80.774 C 281.475 79.818,244.224 79.536,243.280 80.480 M105.680 118.080 C 104.989 118.771,104.989 156.029,105.680 156.720 C 106.371 157.411,143.629 157.411,144.320 156.720 C 145.011 156.029,145.011 118.771,144.320 118.080 C 143.629 117.389,106.371 117.389,105.680 118.080 M62.667 204.657 C 62.630 204.688,61.250 204.809,59.600 204.927 C 57.950 205.044,56.555 205.153,56.500 205.170 C 56.445 205.186,56.400 225.319,56.400 249.908 L 56.400 294.616 74.907 294.743 C 96.292 294.888,94.530 295.249,94.936 290.647 C 95.467 284.640,97.122 283.226,104.801 282.217 C 107.280 281.892,109.349 281.574,109.400 281.513 C 109.450 281.451,109.995 280.264,110.611 278.875 C 113.422 272.541,117.927 271.288,128.359 273.937 C 131.178 274.653,131.405 274.655,133.949 273.988 C 141.239 272.076,148.621 272.161,154.465 274.223 C 156.285 274.865,157.966 274.309,158.904 272.754 C 160.486 270.135,164.136 269.600,180.424 269.600 C 195.749 269.600,194.574 269.905,194.937 265.830 C 195.475 259.774,197.536 257.968,204.796 257.189 C 209.536 256.680,209.693 256.603,210.340 254.443 C 211.044 252.092,213.974 249.066,216.562 248.015 C 218.914 247.061,222.745 247.387,228.849 249.060 C 230.954 249.637,231.315 249.625,234.449 248.871 C 242.652 246.896,245.061 246.960,255.666 249.432 C 256.536 249.635,257.056 249.381,258.505 248.045 C 261.600 245.192,262.272 245.037,272.278 244.877 C 282.539 244.712,281.906 244.980,282.454 240.564 C 283.363 233.244,285.946 232.000,300.241 232.000 C 307.294 232.000,306.882 232.245,307.515 227.683 C 308.244 222.424,309.589 220.960,314.531 220.047 C 316.847 219.618,342.103 219.369,342.748 219.768 C 342.935 219.884,343.204 219.863,343.344 219.722 C 343.578 219.489,343.730 205.239,343.500 205.170 C 342.405 204.841,315.729 204.750,200.267 204.682 C 124.623 204.637,62.703 204.626,62.667 204.657 M330.882 255.720 C 330.671 255.984,330.374 257.280,330.223 258.600 C 329.288 266.724,327.912 267.541,314.600 267.884 C 304.926 268.132,305.387 267.953,305.082 271.588 C 304.453 279.088,302.028 280.380,288.549 280.393 C 280.185 280.401,280.722 280.141,280.071 284.508 C 279.216 290.250,277.833 291.704,272.540 292.428 C 266.855 293.206,266.574 293.338,265.998 295.501 C 263.918 303.318,256.256 305.690,237.200 304.416 C 231.887 304.060,229.140 304.059,225.800 304.410 C 223.380 304.664,212.400 304.964,201.400 305.077 C 179.190 305.305,180.604 305.076,180.229 308.507 C 179.510 315.089,177.156 317.600,171.705 317.600 C 170.962 317.600,169.539 317.805,168.543 318.056 C 166.642 318.535,166.668 318.500,165.381 322.200 C 164.420 324.960,161.904 327.338,159.076 328.161 C 154.434 329.510,142.458 330.042,134.808 329.238 C 132.865 329.034,129.702 329.029,127.408 329.227 C 116.472 330.167,107.671 330.406,83.680 330.414 C 69.314 330.419,57.414 330.332,57.236 330.222 C 57.058 330.112,56.796 330.137,56.656 330.278 C 56.128 330.806,56.366 367.931,56.900 368.276 C 57.175 368.454,65.543 368.652,75.495 368.715 L 93.591 368.831 93.700 384.515 L 93.810 400.200 93.905 384.091 L 94.000 367.983 95.053 366.391 C 95.632 365.516,96.358 364.800,96.666 364.800 C 96.973 364.800,97.329 364.530,97.455 364.200 C 97.582 363.870,97.936 363.600,98.243 363.600 C 98.549 363.600,98.800 363.436,98.800 363.235 C 98.800 363.034,100.255 362.314,102.034 361.635 L 105.268 360.400 125.000 360.400 L 144.732 360.400 147.966 361.635 C 149.745 362.314,151.200 363.034,151.200 363.235 C 151.200 363.436,151.451 363.600,151.757 363.600 C 152.064 363.600,152.418 363.870,152.545 364.200 C 152.671 364.530,153.027 364.800,153.334 364.800 C 153.642 364.800,154.368 365.516,154.947 366.391 C 156.398 368.585,156.618 377.959,155.200 377.200 C 154.593 376.875,154.399 376.896,154.394 377.286 C 154.390 377.647,154.273 377.622,154.000 377.200 C 153.787 376.870,153.609 376.792,153.606 377.028 C 153.601 377.386,150.299 377.540,149.600 377.214 C 149.428 377.134,146.299 377.112,144.372 377.178 C 143.172 377.220,140.512 379.961,139.418 382.285 C 137.859 385.595,136.638 387.047,134.275 388.403 L 132.200 389.592 125.443 389.596 L 118.686 389.600 116.743 391.543 L 114.800 393.486 114.800 396.743 L 114.800 400.000 135.600 400.000 L 156.400 400.000 156.400 384.400 L 156.400 368.800 199.995 368.800 L 243.591 368.800 243.700 384.500 L 243.810 400.200 243.905 384.091 L 244.000 367.983 245.053 366.391 C 245.632 365.516,246.358 364.800,246.666 364.800 C 246.973 364.800,247.329 364.530,247.455 364.200 C 247.582 363.870,247.936 363.600,248.243 363.600 C 248.549 363.600,248.800 363.436,248.800 363.235 C 248.800 363.034,250.255 362.314,252.034 361.635 L 255.268 360.400 275.000 360.400 L 294.732 360.400 297.966 361.635 C 299.745 362.314,301.200 363.034,301.200 363.235 C 301.200 363.436,301.451 363.600,301.757 363.600 C 302.064 363.600,302.418 363.870,302.545 364.200 C 302.671 364.530,303.027 364.800,303.334 364.800 C 303.642 364.800,304.368 365.516,304.947 366.391 C 306.398 368.585,306.618 377.959,305.200 377.200 C 304.593 376.875,304.399 376.896,304.394 377.286 C 304.390 377.647,304.273 377.622,304.000 377.200 C 303.787 376.870,303.609 376.792,303.606 377.028 C 303.601 377.386,300.299 377.540,299.600 377.214 C 299.428 377.134,296.299 377.112,294.372 377.178 C 293.172 377.220,290.512 379.961,289.418 382.285 C 287.859 385.595,286.638 387.047,284.275 388.403 L 282.200 389.592 275.443 389.596 L 268.686 389.600 266.743 391.543 L 264.800 393.486 264.800 396.743 L 264.800 400.000 285.600 400.000 L 306.400 400.000 306.400 384.415 L 306.400 368.831 324.500 368.715 C 334.455 368.652,342.825 368.454,343.100 368.276 C 343.496 368.020,343.600 356.259,343.599 311.676 L 343.599 255.400 337.431 255.320 C 333.032 255.263,331.155 255.378,330.882 255.720 " stroke="none" fill="#f4fcec" fill-rule="evenodd"></path><path id="path4" d="M153.600 48.031 C 151.184 49.124,149.301 50.980,148.155 53.400 L 147.208 55.400 147.213 75.000 C 147.219 98.493,147.329 98.970,153.400 101.845 L 155.400 102.792 175.000 102.792 L 194.600 102.792 196.600 101.845 C 202.671 98.970,202.781 98.493,202.787 75.000 L 202.792 55.400 201.845 53.400 C 200.699 50.980,198.816 49.124,196.400 48.031 C 193.604 46.767,156.396 46.767,153.600 48.031 M195.426 48.756 C 197.814 49.841,199.810 51.762,200.973 54.096 L 202.000 56.157 201.991 74.979 C 201.981 97.435,201.846 98.012,195.904 100.973 L 193.843 102.000 175.000 102.000 L 156.157 102.000 154.096 100.973 C 148.154 98.012,148.019 97.435,148.009 74.979 L 148.000 56.157 149.027 54.096 C 150.190 51.762,152.186 49.841,154.574 48.756 C 157.071 47.622,192.929 47.622,195.426 48.756 M240.996 73.138 C 234.664 76.133,234.400 77.210,234.400 100.000 C 234.400 122.790,234.664 123.867,240.996 126.862 L 243.400 127.999 262.296 128.000 C 285.394 128.000,286.234 127.810,289.188 121.898 L 290.400 119.472 290.400 100.000 L 290.400 80.528 289.188 78.102 C 286.234 72.190,285.394 72.000,262.296 72.000 L 243.400 72.001 240.996 73.138 M283.448 74.023 C 285.483 75.008,287.797 77.468,288.831 79.745 C 289.987 82.291,289.987 117.709,288.831 120.255 C 285.911 126.686,285.448 126.801,262.374 126.796 L 243.000 126.792 240.973 125.630 C 238.819 124.395,237.128 122.484,236.180 120.213 C 235.321 118.159,235.321 81.841,236.180 79.787 C 237.128 77.516,238.819 75.605,240.973 74.370 L 243.000 73.208 262.374 73.204 C 281.117 73.200,281.803 73.227,283.448 74.023 M104.154 110.247 C 101.793 111.084,99.240 113.436,98.149 115.778 L 97.208 117.800 97.213 137.400 C 97.219 160.893,97.329 161.370,103.400 164.245 L 105.400 165.192 125.000 165.192 L 144.600 165.192 146.600 164.245 C 152.671 161.370,152.781 160.893,152.787 137.400 L 152.792 117.800 151.851 115.778 C 150.725 113.360,148.189 111.076,145.682 110.222 C 143.058 109.328,106.684 109.350,104.154 110.247 M146.062 111.665 C 151.918 114.787,152.000 115.141,152.000 137.469 C 152.000 158.208,152.151 157.053,149.070 159.892 C 145.302 163.366,146.511 163.200,125.000 163.200 C 103.489 163.200,104.698 163.366,100.930 159.892 C 97.849 157.053,98.000 158.210,98.000 137.453 C 98.000 115.074,98.055 114.836,104.000 111.609 L 106.200 110.414 124.944 110.407 L 143.688 110.400 146.062 111.665 M65.000 176.431 C 63.020 177.100,60.275 178.377,58.900 179.270 L 56.400 180.894 56.436 189.747 C 56.461 195.943,56.584 198.212,56.846 197.307 L 57.219 196.013 200.000 196.013 L 342.781 196.013 343.154 197.307 C 343.416 198.212,343.539 195.943,343.564 189.747 L 343.600 180.894 341.100 179.269 C 339.725 178.376,336.953 177.095,334.941 176.422 L 331.282 175.200 306.421 175.200 C 285.603 175.200,281.380 175.293,280.450 175.774 C 278.959 176.545,276.630 179.174,275.572 181.282 C 274.273 183.868,272.966 185.447,271.016 186.789 L 269.256 188.000 250.000 188.000 L 230.744 188.000 228.984 186.789 C 227.034 185.447,225.727 183.868,224.428 181.282 C 223.370 179.174,221.041 176.545,219.550 175.774 C 218.609 175.287,212.754 175.200,181.051 175.200 L 143.662 175.200 141.931 176.516 C 140.979 177.240,139.632 178.815,138.938 180.016 C 136.937 183.477,135.522 185.266,133.665 186.683 L 131.938 188.000 112.614 188.000 L 93.290 188.000 91.349 186.700 C 90.281 185.985,88.866 184.539,88.204 183.487 C 82.793 174.887,83.291 175.197,74.909 175.208 C 68.950 175.216,68.400 175.284,65.000 176.431 M343.176 223.540 C 343.012 223.978,340.696 224.068,330.853 224.022 L 318.731 223.964 317.021 224.967 C 314.929 226.193,313.112 228.211,311.839 230.723 C 311.312 231.764,309.970 233.467,308.857 234.508 L 306.834 236.400 300.397 236.400 C 292.105 236.400,290.221 237.342,286.800 243.200 C 283.570 248.731,282.683 249.147,273.800 249.294 L 267.400 249.400 265.168 250.851 C 263.587 251.880,262.405 253.110,261.113 255.071 C 260.110 256.593,258.626 258.421,257.816 259.132 C 256.162 260.585,256.989 260.599,248.600 258.968 L 243.800 258.035 237.532 259.248 L 231.263 260.462 224.884 259.216 L 218.504 257.971 216.352 258.820 C 215.168 259.287,212.165 260.184,209.679 260.813 C 203.872 262.281,202.200 263.437,199.577 267.800 C 198.519 269.560,196.898 271.675,195.975 272.500 L 194.297 274.000 181.537 274.000 L 168.777 274.000 166.489 275.164 C 163.909 276.476,162.395 277.957,160.219 281.301 C 157.462 285.535,156.956 285.676,149.800 284.204 C 143.837 282.977,143.934 282.977,137.515 284.247 C 131.638 285.409,130.692 285.389,123.392 283.947 L 118.781 283.036 114.834 284.330 C 112.663 285.041,109.730 285.866,108.315 286.162 C 104.147 287.034,101.449 289.156,99.421 293.158 C 98.907 294.172,97.479 295.955,96.247 297.120 L 94.007 299.238 75.422 299.175 C 61.938 299.129,56.786 298.987,56.650 298.656 C 56.367 297.965,56.365 300.527,56.649 301.944 C 56.785 302.627,57.048 303.094,57.232 302.980 C 57.417 302.866,65.662 302.781,75.555 302.792 C 92.719 302.809,93.643 302.773,95.728 301.992 C 98.508 300.952,101.221 298.147,102.149 295.354 C 103.203 292.180,105.236 290.480,108.843 289.755 C 115.071 288.503,117.806 287.183,118.503 285.091 C 118.598 284.805,119.340 285.160,120.397 285.998 C 125.270 289.857,138.056 289.575,142.579 285.508 L 143.793 284.417 144.710 285.405 C 146.350 287.174,151.645 288.800,155.766 288.800 C 158.138 288.800,161.587 286.063,163.302 282.821 C 163.813 281.854,165.097 280.329,166.155 279.432 L 168.080 277.800 181.740 277.600 L 195.400 277.400 197.200 276.338 C 199.668 274.882,200.567 273.824,201.975 270.719 C 203.443 267.481,205.487 265.380,207.519 265.019 C 213.878 263.891,217.283 262.532,217.982 260.843 C 218.591 259.374,218.826 259.324,219.838 260.443 C 223.735 264.752,239.925 264.668,242.969 260.323 L 243.584 259.445 244.492 260.286 C 247.321 262.903,255.220 264.618,257.974 263.213 C 260.114 262.122,262.072 260.107,263.461 257.570 C 264.123 256.360,265.327 254.967,266.337 254.244 L 268.074 253.000 275.137 252.800 C 284.511 252.535,287.003 251.322,289.414 245.855 C 290.009 244.505,291.141 242.725,291.929 241.900 L 293.362 240.400 299.781 240.400 C 308.914 240.399,312.024 238.816,314.717 232.793 C 315.404 231.257,316.494 229.649,317.368 228.882 L 318.852 227.579 330.296 227.613 C 336.636 227.631,342.054 227.815,342.445 228.024 C 343.056 228.351,343.186 228.167,343.411 226.664 C 343.688 224.819,343.522 222.617,343.176 223.540 M342.743 246.991 C 342.603 247.130,339.902 247.236,336.740 247.225 C 328.435 247.198,324.796 249.121,322.886 254.548 C 322.509 255.619,321.525 257.194,320.700 258.048 L 319.201 259.600 312.700 259.600 C 306.365 259.601,306.139 259.630,303.800 260.750 C 300.667 262.250,297.600 265.793,297.600 267.911 C 297.600 268.199,296.765 269.327,295.745 270.417 L 293.891 272.400 287.245 272.404 C 278.016 272.409,275.548 273.647,272.883 279.607 C 271.291 283.166,269.578 284.616,266.545 284.972 C 261.404 285.575,251.577 287.294,247.712 288.266 L 243.624 289.294 240.512 288.457 C 229.973 285.622,220.533 286.916,216.061 291.809 C 214.592 293.416,213.188 294.427,210.920 295.510 L 207.800 297.000 194.000 297.200 L 180.200 297.400 178.140 298.486 C 175.729 299.758,173.864 301.867,172.917 304.395 C 171.432 308.358,169.596 309.767,165.400 310.165 C 161.263 310.557,151.189 312.355,147.279 313.399 L 143.865 314.311 139.232 313.097 C 129.708 310.601,119.075 312.540,115.332 317.456 C 114.541 318.495,113.175 319.434,110.800 320.572 L 107.400 322.200 82.873 322.299 C 67.593 322.361,58.072 322.253,57.620 322.011 C 57.008 321.683,56.857 321.816,56.648 322.861 C 56.282 324.692,56.345 327.105,56.743 326.478 C 57.010 326.057,61.840 325.962,81.637 325.988 L 106.200 326.021 110.351 324.974 C 112.634 324.398,115.604 323.424,116.951 322.809 C 118.298 322.193,119.850 321.554,120.400 321.388 C 120.950 321.222,122.672 320.484,124.226 319.747 C 125.780 319.011,128.055 318.063,129.281 317.641 L 131.511 316.874 134.655 318.192 C 136.385 318.917,139.150 320.088,140.800 320.795 L 143.800 322.081 147.600 320.398 C 153.491 317.789,160.292 315.370,164.431 314.411 C 170.768 312.944,173.322 311.314,175.229 307.517 C 176.487 305.013,177.868 303.301,179.701 301.973 L 181.320 300.800 194.360 300.799 C 208.590 300.798,211.640 300.397,216.696 297.863 C 217.743 297.339,219.316 296.677,220.192 296.393 C 221.067 296.110,223.227 295.209,224.992 294.393 C 231.268 291.488,231.615 291.499,238.568 294.859 C 243.353 297.171,243.692 297.178,248.481 295.065 C 255.587 291.929,262.688 289.524,267.600 288.588 C 270.755 287.987,273.854 285.376,275.791 281.685 C 278.476 276.569,279.624 276.000,287.251 276.000 C 295.461 276.000,297.486 274.994,300.643 269.349 C 301.423 267.955,302.882 266.091,303.887 265.207 L 305.713 263.600 312.072 263.600 C 320.328 263.600,322.745 262.440,325.399 257.201 C 326.623 254.787,328.408 252.707,330.218 251.589 C 331.733 250.653,342.657 250.481,343.294 251.384 C 343.652 251.890,343.623 248.967,343.258 247.669 C 343.114 247.156,342.882 246.851,342.743 246.991 " stroke="none" fill="#848484" fill-rule="evenodd"></path><path id="path5" d="M124.483 31.540 C 124.194 31.724,124.989 31.796,126.283 31.704 C 129.442 31.479,129.858 31.268,127.200 31.238 C 125.990 31.224,124.767 31.360,124.483 31.540 M270.833 31.346 C 270.925 31.426,272.170 31.587,273.600 31.702 C 275.127 31.826,275.870 31.778,275.400 31.585 C 274.626 31.267,270.496 31.051,270.833 31.346 M119.829 32.229 C 119.483 32.574,119.200 33.064,119.200 33.318 C 119.200 33.571,119.490 33.364,119.845 32.857 C 120.343 32.146,120.731 31.992,121.545 32.180 C 122.336 32.363,122.450 32.323,122.000 32.018 C 121.153 31.445,120.554 31.503,119.829 32.229 M278.000 32.018 C 277.550 32.323,277.664 32.363,278.455 32.180 C 279.269 31.992,279.657 32.146,280.155 32.857 C 280.510 33.364,280.800 33.571,280.800 33.318 C 280.800 32.065,279.098 31.275,278.000 32.018 M118.838 36.200 C 118.849 37.599,118.898 37.683,119.226 36.865 C 119.462 36.275,119.457 35.684,119.212 35.265 C 118.916 34.758,118.827 34.980,118.838 36.200 M280.656 35.400 C 280.529 35.729,280.588 36.404,280.787 36.900 C 281.102 37.681,281.153 37.602,281.175 36.300 C 281.202 34.709,281.033 34.417,280.656 35.400 M59.400 56.800 C 60.493 57.269,60.800 57.269,60.800 56.800 C 60.800 56.580,60.305 56.413,59.700 56.428 C 58.725 56.453,58.691 56.495,59.400 56.800 M339.200 56.800 C 339.200 57.269,339.507 57.269,340.600 56.800 C 341.309 56.495,341.275 56.453,340.300 56.428 C 339.695 56.413,339.200 56.580,339.200 56.800 M57.242 57.349 C 56.355 58.418,57.144 59.224,58.132 58.258 C 58.675 57.728,58.856 57.288,58.605 57.106 C 58.021 56.683,57.756 56.730,57.242 57.349 M56.428 59.700 C 56.413 60.305,56.580 60.800,56.800 60.800 C 57.269 60.800,57.269 60.493,56.800 59.400 C 56.495 58.691,56.453 58.725,56.428 59.700 M343.108 59.583 C 342.831 60.567,342.997 61.137,343.432 60.701 C 343.560 60.573,343.601 60.048,343.524 59.534 L 343.384 58.600 343.108 59.583 M22.900 69.232 C 23.375 69.509,23.825 69.509,24.300 69.232 C 24.871 68.899,24.742 68.824,23.600 68.824 C 22.458 68.824,22.329 68.899,22.900 69.232 M36.500 69.099 C 40.185 69.165,46.215 69.165,49.900 69.099 C 53.585 69.033,50.570 68.979,43.200 68.979 C 35.830 68.979,32.815 69.033,36.500 69.099 M350.100 69.099 C 353.785 69.165,359.815 69.165,363.500 69.099 C 367.185 69.033,364.170 68.979,356.800 68.979 C 349.430 68.979,346.415 69.033,350.100 69.099 M375.535 69.226 C 376.125 69.462,376.716 69.457,377.135 69.212 C 377.642 68.916,377.420 68.827,376.200 68.838 C 374.801 68.849,374.717 68.898,375.535 69.226 M19.592 69.810 C 19.237 70.237,19.202 70.677,19.472 71.283 C 19.817 72.056,19.886 72.074,20.124 71.453 C 20.296 71.005,20.237 70.854,19.957 71.027 C 19.690 71.191,19.578 71.008,19.666 70.552 C 19.745 70.143,20.143 69.745,20.552 69.666 C 21.008 69.578,21.191 69.690,21.027 69.957 C 20.857 70.231,20.999 70.299,21.413 70.140 C 21.936 69.939,21.961 69.821,21.534 69.550 C 20.743 69.049,20.159 69.127,19.592 69.810 M378.466 69.550 C 378.039 69.821,378.064 69.939,378.587 70.140 C 379.001 70.299,379.143 70.231,378.973 69.957 C 378.809 69.690,378.992 69.578,379.448 69.666 C 379.857 69.745,380.255 70.143,380.334 70.552 C 380.422 71.008,380.310 71.191,380.043 71.027 C 379.763 70.854,379.704 71.005,379.876 71.453 C 380.114 72.074,380.183 72.056,380.528 71.283 C 381.168 69.850,379.803 68.703,378.466 69.550 M18.824 73.600 C 18.824 74.742,18.899 74.871,19.232 74.300 C 19.509 73.825,19.509 73.375,19.232 72.900 C 18.899 72.329,18.824 72.458,18.824 73.600 M380.656 73.000 C 380.529 73.329,380.588 74.004,380.787 74.500 C 381.102 75.281,381.153 75.202,381.175 73.900 C 381.202 72.309,381.033 72.017,380.656 73.000 M0.000 147.000 L 0.000 156.000 3.162 156.000 L 6.323 156.000 6.462 161.581 C 6.556 165.378,6.761 167.322,7.105 167.666 C 7.946 168.506,12.686 168.749,28.700 168.775 L 44.000 168.800 44.000 173.956 C 44.000 181.031,43.848 180.867,50.681 181.114 L 55.893 181.302 58.447 179.566 C 63.172 176.354,67.496 175.208,74.909 175.204 C 82.307 175.199,83.193 175.545,85.618 179.386 C 86.378 180.590,87.542 182.435,88.204 183.487 C 88.866 184.539,90.281 185.985,91.349 186.700 L 93.290 188.000 112.614 188.000 L 131.938 188.000 133.665 186.683 C 135.522 185.266,136.937 183.477,138.938 180.016 C 139.632 178.815,140.979 177.240,141.931 176.516 L 143.662 175.200 181.051 175.200 C 212.754 175.200,218.609 175.287,219.550 175.774 C 221.041 176.545,223.370 179.174,224.428 181.282 C 225.727 183.868,227.034 185.447,228.984 186.789 L 230.744 188.000 250.000 188.000 L 269.256 188.000 271.016 186.789 C 272.966 185.447,274.273 183.868,275.572 181.282 C 276.630 179.174,278.959 176.545,280.450 175.774 C 281.380 175.293,285.606 175.201,306.480 175.204 L 331.400 175.207 335.200 176.519 C 337.333 177.255,340.120 178.592,341.553 179.566 L 344.107 181.302 349.319 181.114 C 356.152 180.867,356.000 181.031,356.000 173.956 L 356.000 168.800 371.300 168.775 C 387.314 168.749,392.054 168.506,392.895 167.666 C 393.239 167.322,393.444 165.378,393.538 161.581 L 393.677 156.000 396.838 156.000 L 400.000 156.000 400.000 147.000 L 400.000 138.000 390.256 138.000 L 380.513 138.000 378.652 139.638 C 377.628 140.539,376.089 142.474,375.231 143.938 C 371.857 149.693,370.439 150.400,362.270 150.400 L 355.664 150.400 353.461 152.413 C 352.250 153.521,350.855 155.276,350.363 156.313 C 349.871 157.351,349.143 158.670,348.746 159.245 C 348.349 159.820,348.153 160.420,348.312 160.578 C 348.470 160.737,348.388 160.807,348.128 160.733 C 347.869 160.660,347.360 160.960,346.999 161.400 C 346.637 161.840,346.458 161.969,346.602 161.686 C 346.749 161.399,346.277 161.531,345.532 161.985 C 344.203 162.795,343.961 162.797,250.219 162.799 L 156.238 162.800 155.019 163.935 C 153.702 165.161,151.435 166.087,148.080 166.769 C 145.189 167.357,104.811 167.357,101.920 166.769 C 98.565 166.087,96.298 165.161,94.981 163.935 L 93.762 162.800 74.781 162.799 C 56.411 162.797,55.757 162.771,54.468 161.985 C 53.723 161.531,53.251 161.399,53.398 161.686 C 53.542 161.969,53.363 161.840,53.001 161.400 C 52.640 160.960,52.131 160.660,51.872 160.733 C 51.612 160.807,51.530 160.737,51.688 160.578 C 51.847 160.420,51.651 159.820,51.254 159.245 C 50.857 158.670,50.129 157.351,49.637 156.313 C 49.145 155.276,47.750 153.521,46.539 152.413 L 44.336 150.400 37.730 150.400 C 29.561 150.400,28.143 149.693,24.769 143.938 C 23.911 142.474,22.372 140.539,21.348 139.638 L 19.487 138.000 9.744 138.000 L 0.000 138.000 0.000 147.000 M132.777 176.642 C 133.458 177.215,134.481 178.479,135.050 179.449 L 136.084 181.214 135.031 182.595 C 134.451 183.355,133.380 184.432,132.651 184.988 L 131.324 186.000 112.319 186.000 L 93.314 186.000 91.257 183.943 C 88.615 181.301,88.866 179.621,92.366 176.537 L 93.400 175.625 112.469 175.613 L 131.539 175.600 132.777 176.642 M270.438 176.900 C 271.206 177.615,272.231 178.886,272.718 179.725 L 273.603 181.250 272.574 182.598 C 272.009 183.340,270.940 184.408,270.200 184.973 L 268.853 186.000 250.000 186.000 L 231.147 186.000 229.800 184.973 C 229.060 184.408,227.991 183.340,227.426 182.598 L 226.397 181.250 227.282 179.725 C 227.769 178.886,228.794 177.615,229.562 176.900 L 230.956 175.600 250.000 175.600 L 269.044 175.600 270.438 176.900 M317.368 228.882 C 316.494 229.649,315.404 231.257,314.717 232.793 C 312.024 238.816,308.914 240.399,299.781 240.400 L 293.362 240.400 291.929 241.900 C 291.141 242.725,290.009 244.505,289.414 245.855 C 287.003 251.322,284.511 252.535,275.137 252.800 L 268.074 253.000 266.337 254.244 C 265.327 254.967,264.123 256.360,263.461 257.570 C 260.653 262.702,257.777 264.290,252.881 263.412 C 243.674 261.761,243.626 261.759,238.308 262.804 C 232.331 263.978,229.883 263.982,224.243 262.822 C 219.363 261.819,218.207 261.874,214.200 263.295 C 212.660 263.841,210.193 264.512,208.718 264.786 C 205.385 265.405,203.721 266.869,201.975 270.719 C 200.567 273.824,199.668 274.882,197.200 276.338 L 195.400 277.400 181.740 277.600 L 168.080 277.800 166.155 279.432 C 165.097 280.329,163.813 281.854,163.302 282.821 C 160.411 288.286,157.486 289.444,150.277 287.975 C 148.051 287.521,145.136 287.150,143.800 287.150 C 142.464 287.150,139.549 287.521,137.323 287.975 C 132.262 289.006,130.324 289.008,125.221 287.985 C 119.903 286.919,118.198 286.919,115.356 287.983 C 114.060 288.468,111.397 289.201,109.438 289.612 C 105.178 290.505,103.257 292.018,102.149 295.354 C 101.220 298.151,98.509 300.952,95.720 301.996 C 93.638 302.774,92.705 302.816,77.662 302.800 C 68.938 302.790,60.754 302.787,59.476 302.791 C 58.031 302.797,57.246 302.951,57.400 303.200 C 57.824 303.887,93.847 303.728,96.169 303.029 C 99.920 301.900,102.287 299.405,103.195 295.622 C 103.502 294.341,104.118 293.255,105.050 292.352 L 106.444 291.000 132.123 290.954 L 157.802 290.907 159.918 289.997 C 162.615 288.837,164.634 286.509,165.458 283.611 C 165.825 282.319,166.601 280.859,167.322 280.100 L 168.557 278.800 181.043 278.800 C 198.660 278.800,201.987 277.474,203.411 269.881 C 203.591 268.922,204.167 267.985,205.058 267.203 L 206.428 266.000 211.914 265.965 C 214.931 265.946,226.670 265.901,238.000 265.865 L 258.600 265.800 260.800 264.563 C 263.237 263.192,265.301 260.348,265.788 257.689 C 265.943 256.842,266.599 255.639,267.309 254.900 L 268.557 253.600 275.264 253.600 C 285.713 253.600,288.763 252.045,290.616 245.771 C 290.976 244.554,291.732 243.245,292.508 242.500 L 293.800 241.257 301.000 241.122 C 311.175 240.930,314.631 238.970,315.803 232.725 C 315.960 231.888,316.601 230.775,317.336 230.065 L 318.600 228.843 330.519 228.753 C 341.392 228.671,343.842 228.485,342.225 227.865 C 341.911 227.745,336.524 227.631,330.253 227.612 L 318.852 227.579 317.368 228.882 M329.200 246.774 C 325.291 247.967,322.968 250.350,321.859 254.304 C 320.673 258.532,320.265 258.718,311.800 258.876 C 301.731 259.064,298.708 260.589,296.982 266.353 C 296.605 267.611,295.840 269.171,295.283 269.820 L 294.269 271.000 287.024 271.200 C 276.512 271.490,273.701 273.016,271.752 279.493 C 270.684 283.042,269.428 283.850,264.473 284.173 C 259.564 284.492,250.182 285.769,246.462 286.623 C 244.119 287.161,243.613 287.143,239.862 286.387 C 232.310 284.865,229.282 284.932,220.483 286.820 C 217.935 287.366,215.628 289.037,213.404 291.948 C 212.161 293.576,211.206 294.334,209.387 295.141 L 207.000 296.200 193.000 296.400 L 179.000 296.600 176.896 297.709 C 174.349 299.051,172.743 301.154,171.859 304.304 C 170.773 308.176,169.954 308.683,163.998 309.177 C 158.656 309.620,149.592 310.898,146.029 311.711 C 144.104 312.150,143.359 312.101,139.429 311.280 C 127.665 308.822,116.428 311.387,113.105 317.287 C 112.327 318.669,110.853 319.639,107.735 320.825 C 107.245 321.011,95.763 321.191,82.220 321.224 C 68.676 321.258,57.507 321.427,57.400 321.601 C 56.953 322.323,59.565 322.394,82.931 322.299 L 107.400 322.200 110.800 320.572 C 113.175 319.434,114.541 318.495,115.332 317.456 C 119.075 312.540,129.708 310.601,139.232 313.097 L 143.865 314.311 147.279 313.399 C 151.189 312.355,161.263 310.557,165.400 310.165 C 169.596 309.767,171.432 308.358,172.917 304.395 C 173.864 301.867,175.729 299.758,178.140 298.486 L 180.200 297.400 194.000 297.200 L 207.800 297.000 210.920 295.510 C 213.188 294.427,214.592 293.416,216.061 291.809 C 220.533 286.916,229.973 285.622,240.512 288.457 L 243.624 289.294 247.712 288.266 C 251.577 287.294,261.404 285.575,266.545 284.972 C 269.578 284.616,271.291 283.166,272.883 279.607 C 275.548 273.647,278.016 272.409,287.245 272.404 L 293.891 272.400 295.745 270.417 C 296.765 269.327,297.600 268.199,297.600 267.911 C 297.600 265.793,300.667 262.250,303.800 260.750 C 306.139 259.630,306.365 259.601,312.700 259.600 L 319.201 259.600 320.700 258.048 C 321.525 257.194,322.509 255.619,322.886 254.548 C 324.590 249.707,328.669 247.153,334.600 247.214 C 341.436 247.284,342.854 247.211,342.600 246.800 C 342.311 246.332,330.723 246.309,329.200 246.774 " stroke="none" fill="#842434" fill-rule="evenodd"></path><path id="path6" d="M154.574 48.756 C 152.186 49.841,150.190 51.762,149.027 54.096 L 148.000 56.157 148.009 74.979 C 148.019 97.435,148.154 98.012,154.096 100.973 L 156.157 102.000 175.000 102.000 L 193.843 102.000 195.904 100.973 C 201.846 98.012,201.981 97.435,201.991 74.979 L 202.000 56.157 200.973 54.096 C 199.810 51.762,197.814 49.841,195.426 48.756 C 192.929 47.622,157.071 47.622,154.574 48.756 M196.464 53.536 L 198.800 55.872 198.800 75.000 L 198.800 94.128 196.464 96.464 L 194.128 98.800 175.000 98.800 L 155.872 98.800 153.536 96.464 L 151.200 94.128 151.200 75.000 L 151.200 55.872 153.536 53.536 L 155.872 51.200 175.000 51.200 L 194.128 51.200 196.464 53.536 M240.973 74.370 C 238.819 75.605,237.128 77.516,236.180 79.787 C 235.321 81.841,235.321 118.159,236.180 120.213 C 237.128 122.484,238.819 124.395,240.973 125.630 L 243.000 126.792 262.374 126.796 C 285.448 126.801,285.911 126.686,288.831 120.255 C 289.987 117.709,289.987 82.291,288.831 79.745 C 285.911 73.314,285.448 73.199,262.374 73.204 L 243.000 73.208 240.973 74.370 M282.912 77.433 C 283.587 78.001,284.648 79.106,285.270 79.888 L 286.400 81.310 286.400 100.000 L 286.400 118.690 285.270 120.112 C 284.648 120.894,283.587 121.999,282.912 122.567 L 281.685 123.600 262.416 123.600 L 243.148 123.600 240.974 121.426 L 238.800 119.252 238.800 100.000 L 238.800 80.748 240.974 78.574 L 243.148 76.400 262.416 76.400 L 281.685 76.400 282.912 77.433 M104.000 111.609 C 98.055 114.836,98.000 115.074,98.000 137.453 C 98.000 158.210,97.849 157.053,100.930 159.892 C 104.698 163.366,103.489 163.200,125.000 163.200 C 146.511 163.200,145.302 163.366,149.070 159.892 C 152.151 157.053,152.000 158.208,152.000 137.469 C 152.000 115.141,151.918 114.787,146.062 111.665 L 143.688 110.400 124.944 110.407 L 106.200 110.414 104.000 111.609 M146.432 115.968 L 148.800 118.336 148.800 137.336 L 148.800 156.336 146.520 158.368 L 144.240 160.400 125.000 160.400 L 105.760 160.400 103.480 158.368 L 101.200 156.336 101.200 137.336 L 101.200 118.336 103.568 115.968 L 105.936 113.600 125.000 113.600 L 144.064 113.600 146.432 115.968 M56.819 197.507 C 56.591 198.328,56.428 199.630,56.457 200.400 C 56.496 201.447,56.555 201.557,56.691 200.835 C 56.832 200.089,56.954 199.998,57.230 200.435 C 57.481 200.831,57.590 200.851,57.594 200.502 C 57.602 199.816,341.436 199.766,342.262 200.451 C 342.668 200.788,342.810 200.763,342.840 200.349 C 342.862 200.047,343.024 200.250,343.200 200.800 C 343.715 202.409,343.698 199.367,343.181 197.507 L 342.766 196.013 200.000 196.013 L 57.234 196.013 56.819 197.507 M330.000 221.986 C 314.207 222.254,312.562 222.874,310.028 229.513 C 309.548 230.771,308.590 232.385,307.899 233.100 L 306.643 234.400 300.022 234.400 C 290.497 234.401,287.945 235.704,285.058 242.042 C 282.947 246.678,282.703 246.799,275.446 246.805 C 265.164 246.813,260.088 249.151,259.387 254.200 C 259.176 255.720,258.774 256.550,257.713 257.660 L 256.316 259.120 252.258 258.965 L 248.200 258.811 251.000 259.389 C 256.529 260.531,256.209 260.543,257.816 259.132 C 258.626 258.421,260.110 256.593,261.113 255.071 C 262.405 253.110,263.587 251.880,265.168 250.851 L 267.400 249.400 273.800 249.294 C 282.683 249.147,283.570 248.731,286.800 243.200 C 290.221 237.342,292.105 236.400,300.397 236.400 L 306.834 236.400 308.857 234.508 C 309.970 233.467,311.312 231.764,311.839 230.723 C 313.112 228.211,314.929 226.193,317.021 224.967 L 318.731 223.964 330.818 224.021 C 343.539 224.082,343.578 224.077,343.594 222.300 C 343.597 221.915,343.375 221.639,343.100 221.686 C 342.825 221.734,336.930 221.869,330.000 221.986 M329.736 251.948 C 327.876 253.295,326.493 255.001,325.243 257.489 C 322.772 262.409,320.206 263.600,312.072 263.600 L 305.713 263.600 303.887 265.207 C 302.882 266.091,301.423 267.955,300.643 269.349 C 297.486 274.994,295.461 276.000,287.251 276.000 C 279.624 276.000,278.476 276.569,275.791 281.685 C 273.854 285.376,270.755 287.987,267.600 288.588 C 262.688 289.524,255.587 291.929,248.481 295.065 C 243.692 297.178,243.353 297.171,238.568 294.859 C 231.615 291.499,231.268 291.488,224.992 294.393 C 223.227 295.209,221.067 296.110,220.192 296.393 C 219.316 296.677,217.743 297.339,216.696 297.863 C 211.640 300.397,208.590 300.798,194.360 300.799 L 181.320 300.800 179.701 301.973 C 177.868 303.301,176.487 305.013,175.229 307.517 C 173.322 311.314,170.768 312.944,164.431 314.411 C 160.292 315.370,153.491 317.789,147.600 320.398 L 143.800 322.081 140.800 320.795 C 139.150 320.088,136.385 318.917,134.655 318.192 L 131.511 316.874 129.281 317.641 C 128.055 318.063,125.780 319.011,124.226 319.747 C 122.672 320.484,120.950 321.222,120.400 321.388 C 119.850 321.554,118.298 322.193,116.951 322.809 C 115.604 323.424,112.634 324.398,110.351 324.974 L 106.200 326.021 81.637 325.988 C 55.952 325.954,56.423 325.924,56.406 327.600 C 56.398 328.345,103.890 328.332,109.400 327.585 C 114.232 326.930,125.448 324.060,128.501 322.698 L 131.202 321.492 133.530 322.537 C 138.781 324.893,143.337 325.749,146.543 324.981 C 151.639 323.762,155.605 322.027,157.630 320.133 C 159.573 318.316,161.922 317.324,168.456 315.561 C 173.568 314.181,176.211 311.885,177.649 307.572 C 177.900 306.818,178.749 305.525,179.534 304.700 L 180.962 303.200 193.181 303.198 C 201.809 303.196,206.531 303.025,209.248 302.615 C 214.853 301.770,225.801 298.945,228.728 297.588 L 231.257 296.415 233.137 297.368 C 235.376 298.503,242.082 300.399,243.855 300.400 C 247.407 300.401,255.355 297.275,257.851 294.896 C 259.496 293.328,261.151 292.668,269.728 290.155 C 273.758 288.974,276.353 286.479,277.585 282.600 C 277.865 281.720,278.739 280.325,279.528 279.500 L 280.962 278.000 287.410 278.000 C 296.810 278.000,300.397 276.267,302.257 270.825 C 302.665 269.629,303.647 267.964,304.438 267.125 L 305.876 265.600 312.334 265.600 C 319.417 265.600,321.294 265.189,324.141 263.018 C 325.440 262.027,328.000 257.781,328.000 256.617 C 328.000 256.367,328.700 255.479,329.555 254.644 L 331.110 253.125 336.655 253.036 C 339.705 252.987,342.515 253.100,342.900 253.287 C 343.462 253.561,343.599 253.449,343.594 252.714 C 343.583 251.082,343.189 250.968,337.194 250.857 L 331.389 250.750 329.736 251.948 M207.331 259.182 C 201.233 261.019,198.358 263.443,197.345 267.600 C 197.210 268.150,196.366 269.365,195.467 270.300 L 193.833 272.000 181.189 272.000 C 167.344 272.000,166.221 272.144,162.726 274.361 C 160.389 275.843,159.674 276.917,159.352 279.426 C 159.167 280.864,158.759 281.764,157.849 282.743 L 156.600 284.085 152.000 283.878 L 147.400 283.671 151.000 284.421 C 156.829 285.634,157.559 285.387,160.219 281.301 C 162.395 277.957,163.909 276.476,166.489 275.164 L 168.777 274.000 181.537 274.000 L 194.297 274.000 195.975 272.500 C 196.898 271.675,198.519 269.560,199.577 267.800 C 202.215 263.412,203.860 262.284,209.802 260.783 C 212.357 260.137,215.202 259.263,216.124 258.838 L 217.800 258.067 214.400 258.072 C 211.849 258.076,210.084 258.353,207.331 259.182 M227.336 259.688 C 231.172 260.414,231.372 260.414,235.136 259.691 L 239.000 258.949 231.200 258.946 L 223.400 258.943 227.336 259.688 M109.400 283.600 C 108.300 284.006,107.040 284.352,106.600 284.369 C 103.298 284.499,98.980 288.126,97.589 291.941 C 97.113 293.248,96.155 294.865,95.461 295.535 L 94.200 296.751 75.781 296.849 C 65.650 296.903,57.145 296.813,56.881 296.650 C 56.568 296.457,56.400 296.630,56.400 297.144 C 56.400 299.205,55.490 299.108,75.430 299.175 L 94.007 299.238 96.247 297.120 C 97.479 295.955,98.907 294.172,99.421 293.158 C 101.462 289.131,104.158 287.024,108.391 286.148 C 109.843 285.848,112.554 285.075,114.415 284.431 L 117.800 283.260 115.133 283.230 C 113.666 283.214,112.226 283.124,111.933 283.031 C 111.640 282.938,110.500 283.194,109.400 283.600 M123.820 284.069 C 127.876 285.153,131.836 285.314,135.965 284.560 L 140.130 283.800 131.473 283.800 C 126.711 283.800,123.267 283.921,123.820 284.069 " stroke="none" fill="#acacac" fill-rule="evenodd"></path><path id="path7" d="M216.188 248.161 C 213.722 249.284,211.087 252.178,210.223 254.715 C 209.336 257.317,210.163 257.970,214.400 258.011 C 216.050 258.027,218.120 258.109,219.000 258.193 C 227.717 259.029,231.592 259.146,236.692 258.732 C 243.419 258.184,243.641 258.184,250.600 258.727 L 256.200 259.164 257.735 257.641 C 260.707 254.692,259.919 249.463,256.485 249.352 C 255.668 249.326,252.570 248.815,249.600 248.217 C 243.621 247.014,241.846 247.090,234.449 248.871 C 231.317 249.625,230.952 249.637,228.849 249.062 C 226.577 248.440,219.623 247.180,218.700 247.223 C 218.425 247.236,217.295 247.658,216.188 248.161 M116.174 273.156 C 113.628 274.312,111.814 276.166,110.616 278.835 L 109.514 281.292 110.359 282.137 C 111.266 283.044,110.323 282.955,128.000 283.804 C 131.429 283.969,135.763 283.905,138.600 283.647 C 142.149 283.325,145.095 283.334,149.903 283.682 L 156.405 284.152 157.755 282.844 C 159.608 281.047,160.100 277.503,158.789 275.383 C 157.837 273.842,157.840 273.843,156.810 274.395 C 156.296 274.670,155.584 274.618,154.468 274.224 C 148.602 272.154,141.242 272.075,133.888 274.004 C 131.557 274.615,130.938 274.643,129.476 274.203 C 123.968 272.545,118.471 272.113,116.174 273.156 " stroke="none" fill="#fcec84" fill-rule="evenodd"></path><path id="path8" d="M155.075 55.122 L 154.000 56.244 154.000 75.047 L 154.000 93.850 155.122 94.925 L 156.244 96.000 175.047 96.000 L 193.850 96.000 194.925 94.878 L 196.000 93.756 196.000 75.000 L 196.000 56.244 194.925 55.122 L 193.850 54.000 175.000 54.000 L 156.150 54.000 155.075 55.122 M194.600 75.000 L 194.600 94.600 175.000 94.600 L 155.400 94.600 155.296 75.400 C 155.239 64.840,155.279 55.973,155.385 55.696 C 155.537 55.299,159.694 55.214,175.089 55.296 L 194.600 55.400 194.600 75.000 M242.470 80.126 C 241.602 81.049,241.600 81.094,241.600 100.056 L 241.600 119.061 242.526 119.930 C 243.449 120.798,243.494 120.800,262.451 120.800 L 281.450 120.800 282.525 119.678 L 283.600 118.556 283.600 100.000 L 283.600 81.444 282.525 80.322 L 281.450 79.200 262.395 79.200 L 243.339 79.200 242.470 80.126 M281.986 80.774 C 282.555 81.836,282.555 118.164,281.986 119.226 C 281.475 120.182,244.224 120.464,243.280 119.520 C 242.589 118.829,242.589 81.171,243.280 80.480 C 244.224 79.536,281.475 79.818,281.986 80.774 M105.169 117.569 L 104.000 118.738 104.000 137.542 L 104.000 156.346 105.162 157.173 C 106.979 158.467,143.021 158.467,144.838 157.173 L 146.000 156.346 146.000 137.542 L 146.000 118.738 144.831 117.569 L 143.662 116.400 125.000 116.400 L 106.338 116.400 105.169 117.569 M144.320 118.080 C 145.011 118.771,145.011 156.029,144.320 156.720 C 143.629 157.411,106.371 157.411,105.680 156.720 C 104.989 156.029,104.989 118.771,105.680 118.080 C 106.371 117.389,143.629 117.389,144.320 118.080 M56.464 203.292 L 56.400 205.184 57.700 205.012 C 59.399 204.786,340.601 204.786,342.300 205.012 L 343.600 205.184 343.536 203.292 C 343.493 202.017,343.422 201.791,343.318 202.600 L 343.164 203.800 200.000 203.800 L 56.836 203.800 56.682 202.600 C 56.578 201.791,56.507 202.017,56.464 203.292 M328.200 219.629 C 319.988 219.763,313.704 220.033,313.000 220.281 C 309.057 221.674,308.186 222.848,307.518 227.663 C 306.882 232.248,307.297 232.000,300.241 232.000 C 285.946 232.000,283.363 233.244,282.454 240.564 C 281.906 244.981,282.540 244.713,272.278 244.869 C 264.154 244.993,263.239 245.078,261.500 245.880 C 258.923 247.067,259.107 247.248,261.900 246.274 C 263.818 245.605,265.642 245.433,272.881 245.236 C 282.789 244.967,282.270 245.170,283.013 241.271 C 284.377 234.111,286.201 233.090,298.000 232.879 C 307.533 232.708,307.309 232.797,307.986 228.911 C 309.366 220.985,310.931 220.342,329.600 220.026 C 336.970 219.902,342.820 219.710,342.600 219.600 C 342.380 219.490,335.900 219.503,328.200 219.629 M330.483 255.785 C 330.049 256.337,329.573 257.736,329.426 258.894 C 328.584 265.536,326.064 266.917,314.267 267.200 C 304.909 267.425,305.126 267.350,304.639 270.508 C 303.462 278.129,300.952 279.598,288.600 279.898 C 280.379 280.097,280.141 280.163,279.778 282.340 C 278.673 288.972,276.880 290.985,271.178 291.992 C 266.010 292.905,264.468 293.582,263.946 295.165 C 261.738 301.853,249.360 305.214,235.644 302.850 C 231.494 302.135,230.818 302.115,228.044 302.625 C 219.762 304.148,214.576 304.503,197.900 304.688 L 181.200 304.874 180.447 305.831 C 180.032 306.358,179.573 307.736,179.426 308.894 C 178.839 313.524,176.585 315.923,172.000 316.798 C 165.331 318.071,164.916 318.271,163.528 320.875 C 159.956 327.577,149.205 330.199,135.247 327.773 C 131.767 327.168,131.181 327.169,127.180 327.785 C 115.462 329.590,113.489 329.687,84.864 329.878 C 69.610 329.979,57.210 330.143,57.309 330.242 C 57.408 330.342,69.259 330.419,83.645 330.414 C 107.668 330.406,116.470 330.167,127.408 329.227 C 129.702 329.029,132.865 329.034,134.808 329.238 C 142.458 330.042,154.434 329.510,159.076 328.161 C 161.904 327.338,164.420 324.960,165.381 322.200 C 166.668 318.500,166.642 318.535,168.543 318.056 C 169.539 317.805,170.962 317.600,171.705 317.600 C 177.156 317.600,179.510 315.089,180.229 308.507 C 180.604 305.076,179.190 305.305,201.400 305.077 C 212.400 304.964,223.380 304.664,225.800 304.410 C 229.140 304.059,231.887 304.060,237.200 304.416 C 256.256 305.690,263.918 303.318,265.998 295.501 C 266.574 293.338,266.855 293.206,272.540 292.428 C 277.833 291.704,279.216 290.250,280.071 284.508 C 280.722 280.141,280.185 280.401,288.549 280.393 C 302.028 280.380,304.453 279.088,305.082 271.588 C 305.387 267.953,304.926 268.132,314.600 267.884 C 327.941 267.541,329.333 266.705,330.229 258.507 C 330.588 255.224,330.757 255.123,335.509 255.338 C 337.696 255.437,339.718 255.374,340.003 255.198 C 340.288 255.022,338.440 254.856,335.897 254.830 C 331.410 254.783,331.249 254.811,330.483 255.785 M341.200 255.200 C 340.732 255.502,340.843 255.589,341.700 255.594 C 342.305 255.597,342.800 255.420,342.800 255.200 C 342.800 254.694,341.983 254.694,341.200 255.200 M203.800 257.264 C 197.635 257.957,195.449 260.069,194.937 265.830 C 194.574 269.905,195.749 269.600,180.424 269.600 C 166.495 269.600,163.436 269.855,160.713 271.245 C 158.630 272.307,158.817 272.469,161.118 271.594 C 164.405 270.346,168.837 270.000,181.567 270.000 C 195.733 270.000,194.771 270.275,195.580 266.000 C 196.574 260.744,198.141 259.257,204.052 257.967 C 206.102 257.520,207.859 257.074,207.956 256.977 C 208.158 256.776,208.133 256.777,203.800 257.264 M102.917 282.425 C 97.340 283.150,95.425 285.124,94.936 290.647 C 94.533 295.214,96.038 294.874,76.715 294.759 C 67.525 294.705,59.892 294.775,59.752 294.914 C 59.612 295.054,67.230 295.179,76.681 295.191 C 96.159 295.217,94.865 295.447,95.381 291.867 C 96.221 286.034,99.562 282.920,105.142 282.772 C 105.724 282.756,106.560 282.589,107.000 282.400 C 108.039 281.954,106.463 281.963,102.917 282.425 M57.200 294.800 C 57.200 295.306,58.017 295.306,58.800 294.800 C 59.268 294.498,59.157 294.411,58.300 294.406 C 57.695 294.403,57.200 294.580,57.200 294.800 M102.000 361.626 C 100.350 362.274,98.940 362.983,98.867 363.202 C 98.793 363.421,98.498 363.600,98.209 363.600 C 97.921 363.600,97.582 363.870,97.455 364.200 C 97.329 364.530,96.973 364.800,96.666 364.800 C 96.055 364.800,93.992 367.671,94.013 368.491 C 94.020 368.788,94.270 368.676,94.613 368.224 C 94.936 367.796,95.200 367.576,95.200 367.734 C 95.200 367.892,95.783 367.719,96.496 367.351 C 97.208 366.982,99.593 366.173,101.796 365.552 L 105.800 364.423 125.000 364.423 L 144.200 364.423 148.204 365.552 C 150.407 366.173,152.792 366.982,153.504 367.351 C 154.217 367.719,154.800 367.892,154.800 367.734 C 154.800 367.576,155.064 367.796,155.387 368.224 C 155.730 368.676,155.980 368.788,155.987 368.491 C 156.008 367.671,153.945 364.800,153.334 364.800 C 153.027 364.800,152.671 364.530,152.545 364.200 C 152.418 363.870,152.064 363.600,151.757 363.600 C 151.451 363.600,151.200 363.436,151.200 363.235 C 151.200 363.034,149.745 362.314,147.966 361.635 L 144.732 360.400 124.866 360.423 L 105.000 360.447 102.000 361.626 M252.000 361.626 C 250.350 362.274,248.940 362.983,248.867 363.202 C 248.793 363.421,248.498 363.600,248.209 363.600 C 247.921 363.600,247.582 363.870,247.455 364.200 C 247.329 364.530,246.973 364.800,246.666 364.800 C 246.055 364.800,243.992 367.671,244.013 368.491 C 244.020 368.788,244.270 368.676,244.613 368.224 C 244.936 367.796,245.200 367.576,245.200 367.734 C 245.200 367.892,245.783 367.719,246.496 367.351 C 247.208 366.982,249.593 366.173,251.796 365.552 L 255.800 364.423 275.000 364.423 L 294.200 364.423 298.204 365.552 C 300.407 366.173,302.792 366.982,303.504 367.351 C 304.217 367.719,304.800 367.892,304.800 367.734 C 304.800 367.576,305.064 367.796,305.387 368.224 C 305.730 368.676,305.980 368.788,305.987 368.491 C 306.008 367.671,303.945 364.800,303.334 364.800 C 303.027 364.800,302.671 364.530,302.545 364.200 C 302.418 363.870,302.064 363.600,301.757 363.600 C 301.451 363.600,301.200 363.436,301.200 363.235 C 301.200 363.034,299.745 362.314,297.966 361.635 L 294.732 360.400 274.866 360.423 L 255.000 360.447 252.000 361.626 M154.527 373.000 C 154.079 374.159,154.062 374.166,154.025 373.200 C 154.003 372.600,153.869 372.387,153.690 372.668 C 153.244 373.369,151.200 373.801,151.200 373.194 C 151.200 372.807,151.072 372.808,150.600 373.200 C 150.260 373.482,150.000 373.523,150.000 373.295 C 150.000 373.049,148.700 372.930,146.659 372.989 C 141.391 373.141,138.067 375.379,136.022 380.149 C 135.585 381.169,134.394 382.813,133.377 383.802 L 131.527 385.600 124.863 385.604 C 114.477 385.610,110.400 388.831,110.400 397.033 L 110.400 400.000 112.600 400.000 L 114.800 400.000 114.800 396.743 L 114.800 393.486 116.743 391.543 L 118.686 389.600 125.443 389.596 L 132.200 389.592 134.275 388.403 C 136.638 387.047,137.859 385.595,139.418 382.285 C 140.512 379.961,143.172 377.220,144.372 377.178 C 146.299 377.112,149.428 377.134,149.600 377.214 C 150.299 377.540,153.601 377.386,153.606 377.028 C 153.609 376.792,153.787 376.870,154.000 377.200 C 154.273 377.622,154.390 377.647,154.394 377.286 C 154.399 376.896,154.593 376.875,155.200 377.200 C 155.966 377.610,155.997 377.513,155.933 374.914 C 155.880 372.791,155.820 372.549,155.657 373.800 L 155.449 375.400 155.220 373.600 L 154.990 371.800 154.527 373.000 M304.527 373.000 C 304.079 374.159,304.062 374.166,304.025 373.200 C 304.003 372.600,303.869 372.387,303.690 372.668 C 303.244 373.369,301.200 373.801,301.200 373.194 C 301.200 372.807,301.072 372.808,300.600 373.200 C 300.260 373.482,300.000 373.523,300.000 373.295 C 300.000 373.049,298.700 372.930,296.659 372.989 C 291.391 373.141,288.067 375.379,286.022 380.149 C 285.585 381.169,284.394 382.813,283.377 383.802 L 281.527 385.600 274.863 385.604 C 264.477 385.610,260.400 388.831,260.400 397.033 L 260.400 400.000 262.600 400.000 L 264.800 400.000 264.800 396.743 L 264.800 393.486 266.743 391.543 L 268.686 389.600 275.443 389.596 L 282.200 389.592 284.275 388.403 C 286.638 387.047,287.859 385.595,289.418 382.285 C 290.512 379.961,293.172 377.220,294.372 377.178 C 296.299 377.112,299.428 377.134,299.600 377.214 C 300.299 377.540,303.601 377.386,303.606 377.028 C 303.609 376.792,303.787 376.870,304.000 377.200 C 304.273 377.622,304.390 377.647,304.394 377.286 C 304.399 376.896,304.593 376.875,305.200 377.200 C 305.966 377.610,305.997 377.513,305.933 374.914 C 305.880 372.791,305.820 372.549,305.657 373.800 L 305.449 375.400 305.220 373.600 L 304.990 371.800 304.527 373.000 " stroke="none" fill="#e8e0f0" fill-rule="evenodd"></path></g></svg>